/vscmnt/brussel_pixiu_data/_data_brussel/112/vsc11236/PredSimResults/SUBJ10opt3D/expIG/worker_01.mot
version=1
nRows=10
nColumns=50
inDegrees=yes
endheader
                time	         pelvis_tilt	         pelvis_list	     pelvis_rotation	           pelvis_tx	           pelvis_ty	           pelvis_tz	       hip_flexion_r	     hip_adduction_r	      hip_rotation_r	        knee_angle_r	       ankle_angle_r	         mtp_angle_r	       hip_flexion_l	     hip_adduction_l	      hip_rotation_l	        knee_angle_l	       ankle_angle_l	         mtp_angle_l	    lumbar_extension	      lumbar_bending	     lumbar_rotation	 ercspn_r/activation	 intobl_r/activation	 extobl_r/activation	    abd_r/activation	    add_r/activation	hamstrings_r/activation	bifemsh_r/activation	glut_max_r/activation	iliopsoas_r/activation	rect_fem_r/activation	  vasti_r/activation	gastroc_r/activation	 soleus_r/activation	tib_ant_r/activation	 ercspn_l/activation	 intobl_l/activation	 extobl_l/activation	    abd_l/activation	    add_l/activation	hamstrings_l/activation	bifemsh_l/activation	glut_max_l/activation	iliopsoas_l/activation	rect_fem_l/activation	  vasti_l/activation	gastroc_l/activation	 soleus_l/activation	tib_ant_l/activation	
          2.34472825	          0.24648582	          3.09229114	        -10.39474621	          1.40683695	          0.84687581	          0.02394016	        -13.14713810	         -3.61137103	          0.00443988	         -5.58604786	         12.34579873	         15.68650270	         21.26928699	          0.65358866	         -4.21440015	        -10.34262354	          0.71908250	          0.23534568	         -4.04574198	          1.09141966	          3.44816332	          0.04714487	          0.01000003	          0.01000006	          0.08796612	          0.01000013	          0.01000345	          0.19275536	          0.01000010	          0.22478670	          0.01000035	          0.01000005	          0.22029521	          0.20402093	          0.02092031	          0.10881061	          0.15917877	          0.01000025	          0.01000003	          0.14701640	          0.07033405	          0.11205739	          0.01000727	          0.06872979	          0.01000036	          0.01000005	          0.01360419	          0.01000151	          0.20136186	
          2.36035978	          0.16649167	          2.94923233	         -9.86727469	          1.41855525	          0.84535655	          0.02214866	        -13.33614003	         -3.50747357	         -1.02381823	         -6.80694520	         12.37719572	         16.93688338	         20.76789789	          0.89186099	         -3.95519119	        -10.72471690	          0.59973951	          0.23358429	         -3.78955481	          0.70401976	          3.81733782	          0.05887835	          0.01000001	          0.01000005	          0.07192226	          0.01000008	          0.01000245	          0.15291686	          0.01000006	          0.17832784	          0.01000030	          0.01000003	          0.20871669	          0.21058328	          0.01659652	          0.10098564	          0.16946260	          0.01000014	          0.01000004	          0.14623004	          0.06347671	          0.08889762	          0.01034310	          0.05452474	          0.01000018	          0.01000013	          0.01079252	          0.01000006	          0.22939112	
          2.37599130	          0.09120446	          2.82767277	         -9.27545794	          1.43049757	          0.84410484	          0.02021885	        -13.48194852	         -3.42682568	         -2.09580399	         -8.13200876	         12.24733578	         18.24259773	         20.29189014	          1.13194148	         -3.71157239	        -11.10025858	          0.34459684	          0.22962452	         -3.51635566	          0.25574533	          4.18351813	          0.06688248	          0.01000001	          0.01000005	          0.05891643	          0.01000012	          0.01000788	          0.12131209	          0.01000012	          0.14147107	          0.01000034	          0.01000007	          0.19322229	          0.21192249	          0.01316637	          0.09618698	          0.15710412	          0.01000014	          0.01000006	          0.13259244	          0.06526085	          0.07052442	          0.01000008	          0.04325558	          0.01000015	          0.02516719	          0.01000007	          0.01000005	          0.25900071	
          2.39162282	          0.02081169	          2.72871064	         -8.61991312	          1.44258328	          0.84327649	          0.01814511	        -13.54075311	         -3.37570771	         -3.19946162	         -9.62336988	         11.92154746	         19.58732319	         19.85940082	          1.38043707	         -3.55056140	        -11.54032927	          0.10221300	          0.22276921	         -3.23470402	         -0.24945777	          4.54380507	          0.07266623	          0.01000001	          0.01000005	          0.04673962	          0.01000015	          0.01423355	          0.09623937	          0.01000864	          0.11223185	          0.01000041	          0.01000013	          0.17396456	          0.20733155	          0.01044519	          0.08685100	          0.12960885	          0.01000012	          0.01000009	          0.10518946	          0.07062219	          0.05594859	          0.01000015	          0.03431553	          0.01000012	          0.04834716	          0.01000008	          0.01000004	          0.27536313	
          2.40725434	         -0.04470149	          2.64982969	         -7.91059945	          1.45475463	          0.84302395	          0.01592254	        -13.45845370	         -3.36239205	         -4.32279414	        -11.36035871	         11.36386837	         20.94806071	         19.41522477	          1.64387305	         -3.44963671	        -11.98248405	          0.03360643	          0.22045263	         -2.94913722	         -0.79633581	          4.89456548	          0.08618298	          0.01000001	          0.01000006	          0.03707949	          0.01000026	          0.01475777	          0.07634867	          0.01703280	          0.08903579	          0.01000031	          0.01000020	          0.14836178	          0.19763890	          0.01000010	          0.08060673	          0.10282133	          0.01000011	          0.01604025	          0.08344951	          0.07383639	          0.04438530	          0.01609277	          0.02722320	          0.01000013	          0.06185517	          0.01000009	          0.01000004	          0.27289965	
          2.42288586	         -0.10480353	          2.58199887	         -7.16238527	          1.46696060	          0.84343835	          0.01355911	        -13.19955978	         -3.38852796	         -5.48956716	        -13.38840465	         10.55064395	         22.27179250	         18.90883454	          1.92284556	         -3.34386772	        -12.36279480	          0.20590495	          0.25579745	         -2.66123599	         -1.36197385	          5.23678033	          0.09774587	          0.01000002	          0.01000005	          0.02941591	          0.01000082	          0.02013715	          0.06056898	          0.02670786	          0.07063389	          0.01000023	          0.01000055	          0.11769841	          0.18217243	          0.01000011	          0.08145411	          0.08157024	          0.01000012	          0.02709639	          0.06620400	          0.07666821	          0.03521192	          0.02240072	          0.02159672	          0.01000014	          0.06084188	          0.01000008	          0.01000005	          0.25103411	
          2.43851738	         -0.15872208	          2.50759202	         -6.38880091	          1.47915041	          0.84447967	          0.01108620	        -12.75653791	         -3.44582867	         -6.71861369	        -15.70923749	          9.50212421	         23.45228626	         18.32379004	          2.20455095	         -3.16729907	        -12.65334795	          0.58384234	          0.35291834	         -2.37315597	         -1.92106497	          5.57085950	          0.09866468	          0.01000002	          0.01000006	          0.02333624	          0.04327103	          0.03468220	          0.04805063	          0.02435880	          0.05603529	          0.01000014	          0.01298545	          0.09337251	          0.16307839	          0.01000010	          0.07703238	          0.06471132	          0.01000012	          0.02994886	          0.06879694	          0.08173978	          0.02793448	          0.02848178	          0.01713312	          0.01000012	          0.06051200	          0.01000009	          0.01000005	          0.22354707	
          2.45414891	         -0.20648036	          2.40519617	         -5.59750264	          1.49125826	          0.84601701	          0.00854186	        -12.13450811	         -3.52257143	         -7.99679595	        -18.30421341	          8.27494234	         24.34436851	         17.64522775	          2.46552113	         -2.89237017	        -12.80329165	          1.03753132	          0.48975360	         -2.09300280	         -2.44969648	          5.89284217	          0.09496173	          0.01000003	          0.01000007	          0.01851311	          0.07307122	          0.04381380	          0.03811959	          0.01932452	          0.04445393	          0.01000010	          0.01616168	          0.07407429	          0.14223745	          0.01000008	          0.07262124	          0.05133681	          0.01000014	          0.03407962	          0.08320081	          0.08979874	          0.02216113	          0.02565707	          0.01359206	          0.01000009	          0.05983483	          0.01000006	          0.01000004	          0.20203412	
          2.46978043	         -0.24784471	          2.25495065	         -4.79291903	          1.50322343	          0.84787802	          0.00596258	        -11.34119627	         -3.61037095	         -9.30416904	        -21.15438528	          6.93559833	         24.81263469	         16.86719768	          2.67714517	         -2.52146464	        -12.78490636	          1.48668479	          0.64474000	         -1.83072870	         -2.92816053	          6.19650984	          0.09027910	          0.01000004	          0.01000008	          0.01468683	          0.09724486	          0.05103282	          0.03024109	          0.01533063	          0.03526621	          0.01000008	          0.01797274	          0.05876462	          0.12172283	          0.01000007	          0.06832108	          0.04072654	          0.01000015	          0.03711314	          0.08018781	          0.09840518	          0.01758101	          0.02038238	          0.01078288	          0.01000007	          0.06002387	          0.01000006	          0.01000004	          0.18633597	
          2.48541195	         -0.28196672	          2.04222931	         -3.97804484	          1.51499216	          0.84989975	          0.00338226	        -10.37904527	         -3.70650345	        -10.62591583	        -24.24968602	          5.52264712	         24.78151360	         15.99547325	          2.81502316	         -2.06808916	        -12.59827933	          1.90598008	          0.81242498	         -1.59569899	         -3.34318669	          6.47553652	          0.08717985	          0.01000005	          0.01000010	          0.01165137	          0.12157474	          0.05393154	          0.02399094	          0.01216225	          0.02797740	          0.01000007	          0.01984879	          0.04661916	          0.10127775	          0.01000005	          0.06343735	          0.03230920	          0.01000015	          0.03787814	          0.06361539	          0.10626424	          0.01394753	          0.01813870	          0.01000005	          0.01000007	          0.06105031	          0.01000006	          0.01000004	          0.17431172	
